<svg xmlns="http://www.w3.org/2000/svg" viewBox="0 0 1280 30" width="100%">
  <path d="M 0 25 Q 16 25 32 12.5 Q 64 -12.5 96 12.5 Q 112 25 128 25 Q 144 25 160 12.5 Q 192 -12.5 224 12.5 Q 240 25 256 25 Q 272 25 288 12.5 Q 320 -12.5 352 12.5 Q 368 25 384 25 Q 400 25 416 12.5 Q 448 -12.5 480 12.5 Q 496 25 512 25 Q 528 25 544 12.5 Q 576 -12.5 608 12.5 Q 624 25 640 25 Q 656 25 672 12.5 Q 704 -12.5 736 12.5 Q 752 25 768 25 Q 784 25 800 12.5 Q 832 -12.5 864 12.5 Q 880 25 896 25 Q 912 25 928 12.5 Q 960 -12.5 992 12.5 Q 1008 25 1024 25 Q 1040 25 1056 12.5 Q 1088 -12.5 1120 12.5 Q 1136 25 1152 25 Q 1168 25 1184 12.5 Q 1216 -12.5 1248 12.5 Q 1264 25 1280 25 Q 1296 25 1312 12.5 Q 1344 -12.5 1376 12.5 Q 1392 25 1408 25 L 1280 30 L 0 30 Z" fill="#ffc81a"></path>
</svg>