<?xml version="1.0" standalone="no"?>
<svg viewBox="0 0 200 200" xmlns="http://www.w3.org/2000/svg">
  <path fill="#F2F4F8" d="M43.6,-71.3C56.8,-67.9,68.1,-56.9,73.2,-43.7C78.4,-30.6,77.3,-15.3,75.4,-1.1C73.5,13.1,70.8,26.2,63.3,35.3C55.9,44.4,43.7,49.6,32.4,55.8C21.1,62,10.5,69.3,-1.2,71.4C-12.9,73.4,-25.7,70.1,-36.1,63.3C-46.5,56.6,-54.4,46.3,-61.8,35.1C-69.3,24,-76.2,12,-79.5,-1.9C-82.8,-15.8,-82.5,-31.6,-75.4,-43.3C-68.3,-55,-54.4,-62.6,-40.7,-65.8C-27,-69,-13.5,-67.8,0.8,-69.2C15.2,-70.7,30.4,-74.8,43.6,-71.3Z" transform="translate(100 100)" />
</svg>
