<?xml version="1.0" standalone="no"?>
<svg viewBox="0 0 200 200" xmlns="http://www.w3.org/2000/svg">
  <path fill="#F2F4F8" d="M39.8,-68.3C52.1,-61.8,62.8,-52.2,71.5,-40.3C80.2,-28.3,86.8,-14.2,88.1,0.8C89.5,15.7,85.6,31.4,74.9,39.9C64.2,48.3,46.7,49.4,33,56.7C19.4,64,9.7,77.5,-0.2,77.8C-10.1,78.1,-20.1,65.2,-32.8,57.3C-45.6,49.5,-61,46.8,-71.6,38.1C-82.2,29.4,-88.1,14.7,-86.9,0.7C-85.6,-13.3,-77.3,-26.6,-68.5,-38.4C-59.6,-50.2,-50.3,-60.5,-38.7,-67.3C-27.2,-74.2,-13.6,-77.6,0.1,-77.8C13.8,-77.9,27.5,-74.7,39.8,-68.3Z" transform="translate(100 100)" />
</svg>
