<?xml version="1.0" standalone="no"?>
<svg viewBox="0 0 200 200" xmlns="http://www.w3.org/2000/svg">
  <path fill="#F2F4F8" d="M39.1,-66.8C52.5,-60.1,66.3,-53.1,75.6,-42C84.9,-30.8,89.7,-15.4,90.1,0.2C90.5,15.8,86.4,31.7,76.7,42.1C66.9,52.6,51.6,57.8,37.9,65.9C24.2,74,12.1,85,-0.9,86.5C-13.9,88.1,-27.8,80.2,-38.7,70.5C-49.6,60.7,-57.4,49.2,-63.7,37.2C-70,25.1,-74.8,12.6,-76.2,-0.8C-77.5,-14.1,-75.5,-28.3,-69.3,-40.5C-63.1,-52.8,-52.8,-63.2,-40.6,-70.5C-28.3,-77.8,-14.2,-82.1,-0.6,-81C12.9,-79.9,25.8,-73.5,39.1,-66.8Z" transform="translate(100 100)" />
</svg>
