<svg xmlns="http://www.w3.org/2000/svg" version="1.1" xmlns:xlink="http://www.w3.org/1999/xlink" viewBox="0 0 700 700" style="overflow: hidden; display: block;" width="700" height="700"><defs></defs><g id="two-0" transform="matrix(1 0 0 1 0 0)" opacity="1"><path transform="matrix(1 0 0 1 350 350)" id="two-1248" d="M 294.95598 122.174767 C 283.01316 160.693272 240.655633 183.727809 210.471602 210.471602 C 181.435058 236.198691 148.713386 259.513096 116.362514 280.923959 C 79.321052 305.439207 43.951045 355.016483 0 348.584304 C -47.802061 341.588534 -57.406363 264.305988 -100.163111 241.815139 C -136.478749 222.712433 -187.861962 244.132049 -223.088465 223.088464 C -258.410782 201.987642 -278.421476 159.617994 -298.046492 123.454899 C -318.728139 85.344747 -350.483854 42.714733 -343.02961 0 C -335.228693 -44.701256 -275.440944 -65.114515 -254.977022 -105.614941 C -236.600275 -141.984613 -256.038936 -198.517158 -225.534416 -225.534416 C -194.221332 -253.267803 -138.495355 -225.059267 -99.686741 -240.665081 C -61.491664 -256.024178 -41.102151 -313.346768 -0.000001 -315.66602 C 40.191629 -317.933894 66.89348 -266.407433 105.109967 -253.757909 C 147.403695 -239.758831 203.068347 -265.207475 239.33878 -239.338781 C 274.175998 -214.492282 288.433419 -164.321656 294.419239 -121.952442 C 300.119984 -81.601054 274.903879 -40.752011 274.985364 -0.000001 C 275.06705 40.852664 307.054353 83.154564 294.95598 122.174767 Z " fill="hsl(0, 0%, 100%)" stroke="undefined" stroke-width="1" stroke-opacity="1" fill-opacity="1" visibility="visible" stroke-linecap="butt" stroke-linejoin="miter" stroke-miterlimit="4"></path></g></svg>