<svg xmlns="http://www.w3.org/2000/svg" version="1.1" xmlns:xlink="http://www.w3.org/1999/xlink" viewBox="0 0 700 700" style="overflow: hidden; display: block;" width="700" height="700"><defs></defs><g id="two-0" transform="matrix(1 0 0 1 0 0)" opacity="1"><path transform="matrix(1 0 0 1 350 350)" id="two-1260" d="M 258.633259 107.129403 C 245.674054 141.410535 228.280625 176.505829 203.581136 203.581136 C 178.485156 231.09107 143.611784 250.074354 111.115677 268.256976 C 76.225827 287.778974 39.948105 314.938608 0 316.538285 C -40.021195 318.140888 -79.823759 296.68773 -114.830159 277.224526 C -148.116931 258.717417 -173.956676 227.34672 -204.20654 204.206539 C -238.333067 178.100835 -291.939928 167.387945 -310.097758 128.446696 C -328.06426 89.915767 -301.77429 42.483538 -300.169102 0 C -298.618892 -41.028465 -318.566822 -87.612269 -300.369772 -124.417234 C -282.006754 -161.557882 -233.745089 -175.779351 -200.483503 -200.483503 C -170.933028 -222.431328 -141.728906 -247.008113 -110.144246 -265.911732 C -75.477128 -286.660223 -40.380299 -318.046268 -0.000001 -319.365527 C 40.310511 -320.682506 81.299254 -297.969904 113.202421 -273.294821 C 143.064495 -250.198395 155.998853 -209.343119 181.579405 -181.579406 C 206.050056 -155.020318 246.299544 -140.876476 263.677031 -109.218603 C 281.232365 -77.236734 281.702484 -36.472542 280.81739 -0.000001 C 279.941528 36.092105 271.39936 73.359093 258.633259 107.129403 Z " fill="hsl(0, 0%, 100%)" stroke="undefined" stroke-width="1" stroke-opacity="1" fill-opacity="1" visibility="visible" stroke-linecap="butt" stroke-linejoin="miter" stroke-miterlimit="4"></path></g></svg>