<svg xmlns="http://www.w3.org/2000/svg" version="1.1" xmlns:xlink="http://www.w3.org/1999/xlink" viewBox="0 0 700 700" style="overflow: hidden; display: block;" width="700" height="700"><defs></defs><g id="two-0" transform="matrix(1 0 0 1 0 0)" opacity="1"><path transform="matrix(1 0 0 1 350 350)" id="two-1378" d="M 308.029312 127.589918 C 282.297426 162.701068 227.343202 165.990839 194.130621 194.130621 C 164.2394 219.456337 153.100251 267.569426 118.221137 285.411073 C 83.40667 303.219651 39.1024 293.089709 0 293.531102 C -39.411338 293.975981 -81.035103 297.447139 -119.309551 288.038735 C -160.001189 278.036151 -207.316576 266.375044 -234.405563 234.405562 C -261.670183 202.228804 -252.60397 150.281362 -268.638024 111.273512 C -284.623441 72.383991 -322.311196 41.199874 -330.707548 0 C -339.400369 -42.654614 -342.805671 -96.36176 -316.654507 -131.162592 C -288.462511 -168.679272 -219.19938 -152.861125 -185.053545 -185.053545 C -152.766928 -215.493108 -164.784493 -283.232139 -126.863238 -306.274948 C -91.068285 -328.025712 -41.8054 -299.730402 -0.000001 -302.315548 C 44.626479 -305.075143 93.603834 -342.627741 133.871644 -323.194741 C 175.137814 -303.279938 171.05621 -235.827308 202.48034 -202.480341 C 232.568577 -170.551012 289.745497 -166.630593 313.962502 -130.047527 C 338.018339 -93.707927 337.984387 -43.567861 336.939702 -0.000001 C 335.904807 43.159614 333.549169 92.768083 308.029312 127.589918 Z " fill="hsl(0, 0%, 100%)" stroke="undefined" stroke-width="1" stroke-opacity="1" fill-opacity="1" visibility="visible" stroke-linecap="butt" stroke-linejoin="miter" stroke-miterlimit="4"></path></g></svg>