<svg id="visual" viewBox="0 0 900 600" width="900" height="600" xmlns="http://www.w3.org/2000/svg" xmlns:xlink="http://www.w3.org/1999/xlink" version="1.1"><rect width="900" height="600" fill="#fafafa"></rect><g><g transform="translate(710 383)"><path d="M44.1 -19.6C49.9 3.5 42.3 25.6 24.7 39.7C7.1 53.9 -20.4 60 -36.9 48.5C-53.4 37.1 -58.8 8.1 -50.8 -18C-42.8 -44 -21.4 -67.2 -1.1 -66.9C19.2 -66.5 38.4 -42.6 44.1 -19.6Z" fill="none" stroke="#bf0f82" stroke-width="10"></path></g><g transform="translate(470 486)"><path d="M45.6 -14C53.1 8.1 48.9 34.9 33.7 45.8C18.6 56.6 -7.7 51.6 -25.1 38.1C-42.6 24.6 -51.3 2.5 -45.6 -17.1C-40 -36.8 -20 -54.2 -0.5 -54C19.1 -53.9 38.2 -36.2 45.6 -14Z" fill="none" stroke="#bf0f82" stroke-width="10"></path></g><g transform="translate(728 174)"><path d="M40.4 -13.9C45.1 1.4 36.7 20.1 22.3 30.6C7.9 41 -12.4 43.1 -24.4 34.2C-36.4 25.4 -39.9 5.6 -34.5 -10.7C-29 -27 -14.5 -39.8 1.7 -40.4C17.8 -40.9 35.6 -29.2 40.4 -13.9Z" fill="none" stroke="#bf0f82" stroke-width="10"></path></g><g transform="translate(214 472)"><path d="M39.8 -14.7C45.4 4.3 39.6 25.4 25.9 35.1C12.3 44.9 -9 43.4 -24.8 32.3C-40.6 21.3 -50.8 0.7 -45.8 -17.6C-40.7 -35.9 -20.3 -52 -1.6 -51.5C17.1 -51 34.2 -33.8 39.8 -14.7Z" fill="none" stroke="#bf0f82" stroke-width="10"></path></g><g transform="translate(356 322)"><path d="M41.9 -13.3C46.9 1.6 38.2 21.2 24.2 30.7C10.2 40.3 -9.1 39.8 -23.1 30C-37.1 20.3 -45.7 1.3 -40.9 -13.3C-36.2 -27.9 -18.1 -38.1 0.2 -38.1C18.5 -38.2 37 -28.1 41.9 -13.3Z" fill="none" stroke="#bf0f82" stroke-width="10"></path></g><g transform="translate(197 152)"><path d="M41.8 -13C49.2 9.1 46.7 35 31.6 46.8C16.5 58.5 -11.3 56.2 -32 41.7C-52.8 27.2 -66.4 0.6 -59.9 -20.4C-53.4 -41.3 -26.7 -56.5 -4.7 -55C17.2 -53.5 34.4 -35.1 41.8 -13Z" fill="none" stroke="#bf0f82" stroke-width="10"></path></g><g transform="translate(475 95)"><path d="M50.5 -14.4C58 6.7 51.5 34.4 33.4 48.1C15.2 61.8 -14.6 61.5 -31.1 48.3C-47.6 35 -50.7 8.8 -43.2 -12.2C-35.8 -33.1 -17.9 -48.8 1.8 -49.4C21.5 -50 43 -35.5 50.5 -14.4Z" fill="none" stroke="#bf0f82" stroke-width="10"></path></g><g transform="translate(560 273)"><path d="M39.2 -14.8C43.1 -0.7 33.3 15.8 18.5 26.8C3.8 37.7 -15.8 43.2 -29.2 34.8C-42.6 26.3 -49.9 3.9 -44 -12.9C-38.1 -29.7 -19 -40.9 -0.7 -40.7C17.6 -40.4 35.3 -28.8 39.2 -14.8Z" fill="none" stroke="#bf0f82" stroke-width="10"></path></g></g></svg>