<svg id="visual" viewBox="0 0 900 600" width="900" height="600" xmlns="http://www.w3.org/2000/svg" xmlns:xlink="http://www.w3.org/1999/xlink" version="1.1"><rect width="900" height="600" fill="#fafafa"></rect><g><g transform="translate(578 312)"><path d="M63.1 -24.6C69.2 -1.6 53 24.6 31.8 38.8C10.6 53 -15.6 55.3 -34.8 42.7C-53.9 30 -65.9 2.3 -58.9 -21.9C-51.9 -46 -26 -66.8 1.2 -67.2C28.5 -67.6 56.9 -47.7 63.1 -24.6Z" fill="none" stroke="#bf0f82" stroke-width="10"></path></g><g transform="translate(277 102)"><path d="M36.2 -9.4C42 5.8 38.2 26.6 26.7 34.4C15.2 42.2 -4 37.1 -18.5 26.3C-33 15.6 -42.8 -0.7 -38.9 -13.4C-35.1 -26 -17.5 -35 -1.1 -34.6C15.3 -34.2 30.5 -24.6 36.2 -9.4Z" fill="none" stroke="#bf0f82" stroke-width="10"></path></g><g transform="translate(222 433)"><path d="M48.7 -17.2C55.3 4.6 47.6 29.8 29.8 43.2C12 56.7 -15.9 58.5 -33.7 45.7C-51.4 33 -59 5.7 -51.7 -17.1C-44.4 -39.8 -22.2 -58 -0.6 -57.8C21 -57.6 42 -39.1 48.7 -17.2Z" fill="none" stroke="#bf0f82" stroke-width="10"></path></g><g transform="translate(694 162)"><path d="M37.9 -14.6C42 0.4 33.4 17.2 20.7 25.7C8.1 34.2 -8.6 34.5 -21 26.1C-33.4 17.8 -41.6 0.8 -37.4 -14.3C-33.2 -29.4 -16.6 -42.7 0.1 -42.7C16.9 -42.8 33.8 -29.6 37.9 -14.6Z" stroke="#bf0f82" fill="none" stroke-width="10"></path></g></g></svg>