<svg id="visual" viewBox="0 0 900 600" width="900" height="600" xmlns="http://www.w3.org/2000/svg" xmlns:xlink="http://www.w3.org/1999/xlink" version="1.1"><rect width="900" height="600" fill="#fafafa"></rect><g><g transform="translate(350 245)"><path d="M54.9 -16.4C63.2 7.6 56.4 38 36.3 53.3C16.3 68.6 -17 69 -36.8 53.9C-56.5 38.8 -62.6 8.2 -54.2 -16C-45.8 -40.2 -22.9 -58.1 0.2 -58.2C23.3 -58.3 46.6 -40.5 54.9 -16.4Z" stroke="#ef36af" fill="none" stroke-width="10"></path></g><g transform="translate(488 357)"><path d="M34.5 -10.7C39.4 3.9 34.4 22.2 22.4 30.8C10.5 39.5 -8.4 38.6 -20.8 29.4C-33.2 20.3 -39 2.9 -34.4 -11.2C-29.8 -25.3 -14.9 -36.1 -0.1 -36C14.8 -36 29.6 -25.2 34.5 -10.7Z" stroke="#ef36af" fill="none" stroke-width="10"></path></g><g transform="translate(674 149)"><path d="M25.1 -9.2C28.7 3 25.2 16.5 16.2 23.3C7.1 30.1 -7.5 30.3 -17.6 23.2C-27.6 16.1 -33.2 1.8 -29.5 -10.5C-25.8 -22.8 -12.9 -33 -1.1 -32.7C10.7 -32.3 21.5 -21.4 25.1 -9.2Z" stroke="#ef36af" fill="none" stroke-width="10"></path></g><g transform="translate(97 222)"><path d="M46.9 -15.7C54 6.6 48.3 32.6 31.1 45.8C13.8 59.1 -14.9 59.5 -32.4 46.4C-49.8 33.3 -56.1 6.5 -48.8 -16C-41.5 -38.6 -20.8 -56.9 -0.4 -56.8C19.9 -56.6 39.8 -38 46.9 -15.7Z" stroke="#ef36af" fill="none" stroke-width="10"></path></g><g transform="translate(182 509)"><path d="M44.9 -14.7C50.4 2.3 41.6 23.8 25.3 35.8C9 47.9 -14.8 50.6 -30.8 39.6C-46.8 28.7 -54.8 4.1 -48.4 -14.1C-42 -32.4 -21 -44.4 -0.6 -44.2C19.7 -44 39.4 -31.6 44.9 -14.7Z" stroke="#ef36af" fill="none" stroke-width="10"></path></g><g transform="translate(659 494)"><path d="M36.9 -10.4C42.9 6.6 39.6 28.3 26.3 38.6C12.9 48.8 -10.5 47.7 -25.7 36.4C-40.9 25.1 -48 3.6 -42.3 -12.9C-36.7 -29.3 -18.3 -40.8 -1.5 -40.3C15.4 -39.8 30.8 -27.4 36.9 -10.4Z" stroke="#ef36af" fill="none" stroke-width="10"></path></g></g></svg>